# xmcd
#
# Track frame offsets:
#	150
#	14036
#	27635
#	41471
#
# Disc length: 732 seconds
# Revision: 0
# Processed by: cddbd v1.5.2PL0 Copyright (c) Steve Scherf et al.
# Submitted via: dBpowerAMP V12.0
#
DISCID=2f02da04
DTITLE=Gene Clark - The Lost Studio Sessions [Bonus Acoustic CD]
DYEAR=2016
DGENRE=Singer-Songwriter
TTITLE0=The Virgin [demo]
TTITLE1=She's The Kind Of Girl [demo]
TTITLE2=1975 [demo]
TTITLE3=One In A Hundred [demo]
EXTD=
EXTT0=
EXTT1=
EXTT2=
EXTT3=
PLAYORDER=
